<svg width="48" height="48" viewBox="0 0 48 48" fill="none" xmlns="http://www.w3.org/2000/svg">
<rect width="48" height="48" fill="#323238"/>
<path d="M16.2105 19H16.2365C17.6315 19 18.5 18 18.5 16.75C18.474 15.4725 17.6315 14.5 16.263 14.5C14.8945 14.5 14 15.4725 14 16.75C14 18 14.868 19 16.2105 19ZM14 20.5H18.5V33.5H14V20.5ZM34 25.25C34 22.6265 31.8735 20.5 29.25 20.5C27.7235 20.5 26.369 21.223 25.5 22.342V20.5H21V33.5H25.5V26C25.5 24.8955 26.3955 24 27.5 24C28.6045 24 29.5 24.8955 29.5 26V33.5H34C34 33.5 34 25.9775 34 25.25Z" fill="white"/>
</svg>
